<svg xmlns="http://www.w3.org/2000/svg" width="672.321" height="118.832" viewBox="0 0 177.885 31.441"><g aria-label="modellet" style="fill:#36f;stroke-width:3.59392"><path d="M30.654 30.993h-8.38V18.937q0-1.389-.292-1.927-.291-.538-1.053-.538-1.412 0-1.412 2.488v12.033h-8.38V18.937q0-1.389-.314-1.927-.291-.538-1.053-.538-1.39 0-1.39 2.488v12.033H0V17.234q0-3.764 2.532-6.386 2.532-2.644 6.14-2.644 3.72 0 6.678 3.137 3.293-3.137 6.587-3.137 4.19 0 6.723 3.047 1.994 2.376 1.994 6.924zM46.161 8.18q4.75 0 8.134 3.429 3.406 3.406 3.406 8.179 0 4.84-3.451 8.246-3.429 3.406-8.291 3.406-4.863 0-8.313-3.406-3.451-3.428-3.451-8.246 0-4.908 3.45-8.246 3.451-3.362 8.516-3.362m-.225 8.269q-1.344 0-2.285.986-.941.964-.941 2.375 0 1.39.94 2.375.964.986 2.286.986 1.345 0 2.286-.986.964-.985.964-2.375 0-1.411-.941-2.375-.942-.986-2.309-.986M74.955.406h8.38v18.62q0 5.132-2.688 8.36-1.547 1.859-3.944 2.957-2.376 1.098-4.885 1.098-4.997 0-8.426-3.361-3.428-3.361-3.428-8.246 0-4.728 3.406-8.18 3.406-3.45 8.067-3.45.74 0 2.24.134v9.232q-1.03-.806-2.06-.806-1.3 0-2.242.963-.918.941-.918 2.286 0 1.3.963 2.24.964.92 2.308.92 3.227 0 3.227-4.46zm34.755 20.772H97.004q-.29-.963-.29-1.77 0-1.12.402-2.196h4.258q-.448-2.487-2.801-2.487-1.569 0-2.555 1.344-.986 1.322-.986 3.406 0 2.174.942 3.518.963 1.345 2.51 1.345 1.254 0 2.42-1.255l4.772 5.736q-3.338 2.622-7.417 2.622-4.974 0-8.358-3.339t-3.384-8.268q0-4.908 3.406-8.291 3.429-3.384 8.403-3.384 4.863 0 8.157 3.316 3.316 3.294 3.316 8.135 0 .493-.09 1.568"/><path d="m116.385 74.665-3.969 17.154h-3.99l3.968-17.154zm7.717 0-3.969 17.154h-3.99l3.968-17.154z" style="font-style:italic;font-weight:700;font-size:22.5778px;font-family:Sans;-inkscape-font-specification:&quot;Sans, Bold Italic&quot;" transform="translate(-84.36 -134.902)scale(1.80676)"/><path d="M163.028 21.178h-12.705q-.291-.963-.291-1.77 0-1.12.403-2.196h4.258q-.448-2.487-2.801-2.487-1.569 0-2.555 1.344-.986 1.322-.986 3.406 0 2.174.941 3.518.964 1.345 2.51 1.345 1.255 0 2.42-1.255l4.773 5.736q-3.339 2.622-7.417 2.622-4.975 0-8.358-3.339t-3.384-8.268q0-4.908 3.406-8.291 3.429-3.384 8.403-3.384 4.863 0 8.157 3.316 3.316 3.294 3.316 8.135 0 .493-.09 1.568M173.964.406v8.56h3.764v8.85h-3.764q0 2.667.829 3.676.851 1.008 3.092 1.008v8.807q-.65.022-.964.022-2.845 0-5.377-1.322-2.51-1.322-4.034-3.585-1.927-2.891-1.927-7.664V.406Z"/></g></svg>